<?xml version="1.0" encoding="iso-8859-1"?>
<!-- Generator: Adobe Illustrator 19.0.0, SVG Export Plug-In . SVG Version: 6.00 Build 0)  -->
<svg version="1.1" id="Layer_1" xmlns="http://www.w3.org/2000/svg" xmlns:xlink="http://www.w3.org/1999/xlink" x="0px" y="0px"
	 viewBox="0 0 512 512" style="enable-background:new 0 0 512 512;" xml:space="preserve">
<circle style="fill:#FF764C;" cx="256" cy="256" r="256"/>
<path style="fill:#FF450C;" d="M512,256c0-7.337-0.326-14.598-0.931-21.778L394.138,117.289L178.426,288.754l-69.189,73.962
	l149.252,149.252C398.726,510.631,512,396.553,512,256z"/>
<path style="fill:#FFFFFF;" d="M213.89,361.539l-61.58-61.58L351.668,100.6c7.12-7.12,18.661-7.12,25.781,0l29.394,29.394
	l-14.512,7.123l-4.561,15.808l-14.726,7.337l-4.565,15.81l-14.726,7.337l-4.565,15.81l-14.729,7.342l-4.565,15.81l-14.729,7.34
	l-4.567,15.812l-14.731,7.344l-4.565,15.812l-14.729,7.34l-4.565,15.81l-14.729,7.34l-4.567,15.813l-14.734,7.347l-4.567,15.813
	l-14.738,7.352L213.89,361.539z"/>
<polygon style="fill:#D0D1D3;" points="386.205,109.358 185.435,333.084 213.89,361.539 218.676,345.505 233.413,338.153 
	237.98,322.338 252.714,314.99 257.283,299.177 272.01,291.837 276.575,276.025 291.304,268.685 295.869,252.873 310.6,245.529 
	315.166,229.716 329.895,222.375 334.458,206.564 349.189,199.221 353.754,183.411 368.48,176.075 373.043,160.263 387.768,152.926 
	392.33,137.119 406.843,129.995 "/>
<path style="fill:#062964;" d="M109.235,362.717l57.496,57.496c5.435,5.435,14.248,5.435,19.685,0l38.202-38.202
	c5.435-5.435,5.435-14.248,0-19.685l-67.339-67.339l-48.044,48.044C103.8,348.469,103.8,357.281,109.235,362.717z M192.655,375.386
	c5.329,5.329,5.329,13.967,0,19.296c-5.329,5.329-13.967,5.329-19.296,0l-38.591-38.591c-5.329-5.329-5.329-13.967,0-19.296
	s13.967-5.329,19.296,0L192.655,375.386z"/>
<path style="fill:#070C49;" d="M190.136,327.845l-21.294,23.728l23.812,23.812c5.329,5.329,5.329,13.967,0,19.296
	s-13.967,5.327-19.296,0l-22.768-22.769l-15.21,16.949l31.351,31.351c5.435,5.435,14.25,5.435,19.685,0l38.202-38.202
	c5.435-5.435,5.435-14.25,0-19.684L190.136,327.845z"/>
<g>
</g>
<g>
</g>
<g>
</g>
<g>
</g>
<g>
</g>
<g>
</g>
<g>
</g>
<g>
</g>
<g>
</g>
<g>
</g>
<g>
</g>
<g>
</g>
<g>
</g>
<g>
</g>
<g>
</g>
</svg>
