<?xml version="1.0" encoding="iso-8859-1"?>
<!-- Generator: Adobe Illustrator 19.0.0, SVG Export Plug-In . SVG Version: 6.00 Build 0)  -->
<svg version="1.1" id="Layer_1" xmlns="http://www.w3.org/2000/svg" xmlns:xlink="http://www.w3.org/1999/xlink" x="0px" y="0px"
	 viewBox="0 0 512 512" style="enable-background:new 0 0 512 512;" xml:space="preserve">
<circle style="fill:#FD8469;" cx="256" cy="256" r="256"/>
<path style="fill:#FC6F58;" d="M511.829,264.88L355.556,108.606L242.55,125.935l-86.106,11.116l67.893,67.893l-48.106,28.736
	L315.29,372.738l-158.846,53.929l84.908,84.906C246.201,511.847,251.083,512,256,512C394.411,512,507.147,402.151,511.829,264.88z"
	/>
<path style="fill:#E6F3FF;" d="M341.333,216.781v-85.333H170.667v85.333c0,15.71,12.734,28.444,28.444,28.444l0,0
	c15.71,0,28.444,12.734,28.444,28.444l0,0c0,15.71-12.734,28.444-28.444,28.444l0,0c-15.71,0-28.444,12.734-28.444,28.444v85.333
	h170.667v-85.333c0-15.71-12.734-28.444-28.444-28.444l0,0c-15.71,0-28.444-12.734-28.444-28.444l0,0
	c0-15.71,12.734-28.444,28.444-28.444l0,0C328.599,245.226,341.333,232.491,341.333,216.781z"/>
<path style="fill:#CFDBE6;" d="M312.889,245.226c15.71,0,28.444-12.734,28.444-28.444v-85.333h-85.045v284.444h85.045v-85.333
	c0-15.71-12.734-28.444-28.444-28.444s-28.444-12.734-28.444-28.444l0,0C284.444,257.96,297.179,245.226,312.889,245.226z"/>
<path style="fill:#FFD15D;" d="M312.889,188.337v-0.862H199.111v0.862c0,19.882,10.199,37.379,25.648,47.551
	c10.826,7.127,17.018,19.511,17.018,32.471v34.07c0,15.336-6.978,30.029-19.353,39.09c-14.136,10.35-23.314,27.069-23.314,45.93
	v28.444h113.778v-28.444c0-18.861-9.18-35.58-23.314-45.93c-12.372-9.059-19.353-23.754-19.353-39.09V268.36
	c0-12.96,6.192-25.345,17.018-32.471C302.69,225.716,312.889,208.218,312.889,188.337z"/>
<path style="fill:#F9B54C;" d="M287.241,235.887c15.45-10.171,25.648-27.67,25.648-47.55v-0.862h-56.601v228.418h56.601v-28.444
	c0-18.861-9.18-35.58-23.314-45.93c-12.372-9.059-19.353-23.754-19.353-39.088v-34.07
	C270.222,255.398,276.414,243.014,287.241,235.887z"/>
<g>
	<rect x="156.444" y="108.606" style="fill:#324A5E;" width="199.111" height="28.444"/>
	<rect x="156.444" y="398.222" style="fill:#324A5E;" width="199.111" height="28.444"/>
</g>
<g>
	<rect x="256.293" y="108.606" style="fill:#2B3B4E;" width="99.262" height="28.444"/>
	<rect x="256.293" y="398.222" style="fill:#2B3B4E;" width="99.262" height="28.444"/>
</g>
<g>
</g>
<g>
</g>
<g>
</g>
<g>
</g>
<g>
</g>
<g>
</g>
<g>
</g>
<g>
</g>
<g>
</g>
<g>
</g>
<g>
</g>
<g>
</g>
<g>
</g>
<g>
</g>
<g>
</g>
</svg>
