<?xml version="1.0" encoding="iso-8859-1"?>
<!-- Generator: Adobe Illustrator 19.0.0, SVG Export Plug-In . SVG Version: 6.00 Build 0)  -->
<svg version="1.1" id="Layer_1" xmlns="http://www.w3.org/2000/svg" xmlns:xlink="http://www.w3.org/1999/xlink" x="0px" y="0px"
	 viewBox="0 0 512 512" style="enable-background:new 0 0 512 512;" xml:space="preserve">
<circle style="fill:#FF764C;" cx="256" cy="256" r="256"/>
<path style="fill:#FF450C;" d="M511.157,276.787L352.249,117.879l-2.815,15.87l-41.396-41.396l-55.87,77.443l-43.673-19.971
	l33.74,33.74l-11,15.248L82.703,364.482L228.78,510.559C237.725,511.504,246.805,512,256,512
	C390.385,512,500.576,408.448,511.157,276.787z"/>
<path style="fill:#00447D;" d="M354.147,175.351c0-5.151-0.621-10.154-1.76-14.957l18.306-10.569l-18.444-31.946l-18.32,10.576
	c-7.247-6.854-16.077-12.048-25.893-14.97V92.353h-36.888v21.132c-9.814,2.922-18.644,8.114-25.893,14.97l-18.32-10.576
	l-18.441,31.946l18.306,10.569c-1.139,4.803-1.76,9.806-1.76,14.957c0,5.151,0.621,10.154,1.76,14.957l-18.306,10.569l18.444,31.946
	l18.32-10.576c7.247,6.856,16.077,12.048,25.893,14.97v21.132h36.888v-21.132c9.814-2.922,18.644-8.114,25.893-14.97l18.32,10.576
	l18.444-31.946l-18.306-10.569C353.527,185.504,354.147,180.502,354.147,175.351z M289.594,203.016
	c-15.279,0-27.665-12.386-27.665-27.665s12.386-27.665,27.665-27.665s27.665,12.386,27.665,27.665S304.873,203.016,289.594,203.016z
	"/>
<path style="fill:#062964;" d="M354.147,175.351c0-5.151-0.621-10.154-1.76-14.957l18.308-10.569l-18.444-31.946l-18.32,10.576
	c-7.249-6.854-16.077-12.048-25.893-14.97V92.353h-19.284v55.374c0.281-0.009,0.555-0.043,0.84-0.043
	c15.279,0,27.665,12.386,27.665,27.665s-12.386,27.665-27.665,27.665c-0.283,0-0.559-0.034-0.84-0.043v55.374h19.284v-21.133
	c9.814-2.922,18.644-8.114,25.893-14.97l18.32,10.576l18.444-31.946l-18.308-10.569
	C353.527,185.504,354.147,180.502,354.147,175.351z"/>
<path style="fill:#00447D;" d="M433.509,284.086c0-3.491-0.421-6.88-1.193-10.135l12.405-7.163l-12.498-21.647l-12.414,7.166
	c-4.911-4.644-10.895-8.164-17.546-10.143v-14.32h-24.997v14.32c-6.651,1.979-12.635,5.499-17.546,10.143l-12.414-7.166
	l-12.498,21.647l12.405,7.163c-0.772,3.255-1.193,6.644-1.193,10.135s0.421,6.88,1.193,10.135l-12.405,7.163l12.498,21.647
	l12.414-7.166c4.911,4.646,10.895,8.164,17.546,10.143v14.32h24.997v-14.32c6.651-1.979,12.634-5.499,17.546-10.143l12.414,7.166
	l12.498-21.647l-12.405-7.163C433.088,290.966,433.509,287.575,433.509,284.086z M389.766,302.832
	c-10.354,0-18.747-8.394-18.747-18.747c0-10.354,8.394-18.747,18.747-18.747c10.354,0,18.747,8.394,18.747,18.747
	C408.514,294.44,400.12,302.832,389.766,302.832z"/>
<path style="fill:#062964;" d="M433.509,284.086c0-3.489-0.421-6.88-1.193-10.135l12.405-7.163l-12.498-21.647l-12.414,7.166
	c-4.911-4.644-10.895-8.164-17.546-10.143v-14.32h-12.374v37.5c10.295,0.067,18.623,8.43,18.623,18.741
	c0,10.312-8.326,18.673-18.623,18.741v37.5h12.374v-14.32c6.651-1.979,12.634-5.499,17.546-10.143l12.414,7.166l12.498-21.647
	l-12.405-7.163C433.088,290.966,433.509,287.575,433.509,284.086z"/>
<path style="fill:#FFD15D;" d="M323.991,309.643c0-62.466-50.638-113.104-113.104-113.104S97.783,247.177,97.783,309.643v45.242
	h226.207V309.643z"/>
<g>
	<path style="fill:#F9B54C;" d="M323.991,309.643c0-62.466-50.638-113.105-113.104-113.105c-0.288,0-0.571,0.019-0.857,0.022
		v158.325h113.962v-45.242H323.991z"/>
	<rect x="188.268" y="196.542" style="fill:#F9B54C;" width="45.235" height="113.105"/>
</g>
<rect x="210.023" y="196.542" style="fill:#F4A200;" width="23.478" height="113.105"/>
<rect x="278.756" y="309.648" style="fill:#C6843C;" width="45.235" height="22.618"/>
<rect x="97.782" y="309.648" style="fill:#EDA548;" width="45.235" height="22.618"/>
<rect x="82.701" y="327.473" style="fill:#F9B54C;" width="256.379" height="37.016"/>
<rect x="210.023" y="327.473" style="fill:#F4A200;" width="129.043" height="37.016"/>
<g>
</g>
<g>
</g>
<g>
</g>
<g>
</g>
<g>
</g>
<g>
</g>
<g>
</g>
<g>
</g>
<g>
</g>
<g>
</g>
<g>
</g>
<g>
</g>
<g>
</g>
<g>
</g>
<g>
</g>
</svg>
